<svg width="39" height="39" viewBox="0 0 39 39" fill="none" xmlns="http://www.w3.org/2000/svg">
<circle cx="19.5" cy="19.5" r="19.5" fill="white"/>
<path d="M29.3333 16H28.24L25.9733 9.76C25.7857 9.24547 25.4448 8.80087 24.9965 8.48616C24.5483 8.17144 24.0143 8.00176 23.4667 8H21.3333C20.6 8 20 8.6 20 9.33333C20 10.0667 20.6 10.6667 21.3333 10.6667H23.4667L25.4133 16H19L18.52 14.6667H18.64C19.3733 14.6667 19.9733 14.0667 19.9733 13.3333C19.9733 12.6 19.3733 12 18.64 12H14.6667C13.9333 12 13.3333 12.6 13.3333 13.3333C13.3333 14.0667 13.9333 14.6667 14.6667 14.6667H15.6667L18.0933 21.3333H17.2C16.6133 18.36 14.12 16.16 11 16.0133C7.26667 15.8267 4 18.9333 4 22.6667C4 26.4 6.93333 29.3333 10.6667 29.3333C13.9467 29.3333 16.6 27.08 17.2 24H22.8C23.3867 26.9733 25.88 29.1733 29 29.32C32.7333 29.4933 36 26.4 36 22.6533C36 18.9333 33.0667 16 29.3333 16ZM12 24H14.4267C13.8667 25.64 12.2933 26.7733 10.4 26.6533C8.41333 26.5333 6.76 24.8533 6.66667 22.8533C6.57333 20.52 8.36 18.6667 10.6667 18.6667C12.44 18.6667 13.8933 19.7733 14.4267 21.3333H12C11.2667 21.3333 10.6667 21.9333 10.6667 22.6667C10.6667 23.4 11.2667 24 12 24ZM22.8 21.3333H20.9333L19.96 18.6667H24C23.4133 19.44 22.9867 20.3333 22.8 21.3333ZM29.1733 26.6667C27.12 26.5867 25.3867 24.84 25.3333 22.7733C25.3067 21.4933 25.8533 20.3733 26.7333 19.6267L27.56 21.8933C27.8133 22.5867 28.5733 22.9467 29.2667 22.6933C29.96 22.44 30.32 21.68 30.0667 20.9867L29.2267 18.68L29.24 18.6667C29.7746 18.6484 30.3073 18.7387 30.806 18.9321C31.3047 19.1255 31.7591 19.4179 32.1416 19.7917C32.5242 20.1656 32.827 20.6131 33.0319 21.1072C33.2367 21.6013 33.3392 22.1318 33.3333 22.6667C33.3333 24.96 31.4933 26.7467 29.1733 26.6667Z" fill="url(#paint0_linear_194_180)"/>
<defs>
<linearGradient id="paint0_linear_194_180" x1="20" y1="8" x2="20" y2="29.3333" gradientUnits="userSpaceOnUse">
<stop stop-color="#5FDB1F"/>
<stop offset="1" stop-color="#62C230"/>
</linearGradient>
</defs>
</svg>
