<svg width="53" height="54" viewBox="0 0 53 54" fill="none" xmlns="http://www.w3.org/2000/svg">
<path d="M4.04181 14.9233C4.04566 13.8187 3.15336 12.9201 2.0488 12.9163C0.944238 12.9124 0.0456876 13.8047 0.0418317 14.9093C0.0379758 16.0139 0.930275 16.9124 2.03484 16.9163C3.1394 16.9201 4.03795 16.0278 4.04181 14.9233Z" fill="#5A8942"/>
<path d="M4.0837 2.92332C4.08755 1.81876 3.19525 0.920211 2.09069 0.916355C0.986129 0.9125 0.0875777 1.8048 0.0837218 2.90936C0.079866 4.01392 0.972165 4.91248 2.07673 4.91633C3.18129 4.92019 4.07984 4.02789 4.0837 2.92332Z" fill="#5A8942"/>
<path d="M15.958 38.965C15.9618 37.8604 15.0695 36.9619 13.9649 36.958C12.8604 36.9542 11.9618 37.8465 11.958 38.951C11.9541 40.0556 12.8464 40.9541 13.951 40.958C15.0555 40.9619 15.9541 40.0696 15.958 38.965Z" fill="#5A8942"/>
<path d="M15.9998 26.9651C16.0037 25.8605 15.1114 24.962 14.0068 24.9581C12.9023 24.9542 12.0037 25.8465 11.9999 26.9511C11.996 28.0557 12.8883 28.9542 13.9929 28.9581C15.0974 28.9619 15.996 28.0696 15.9998 26.9651Z" fill="#5A8942"/>
<path d="M16.0417 14.9651C16.0456 13.8606 15.1533 12.962 14.0487 12.9582C12.9442 12.9543 12.0456 13.8466 12.0418 14.9512C12.0379 16.0557 12.9302 16.9543 14.0348 16.9581C15.1393 16.962 16.0379 16.0697 16.0417 14.9651Z" fill="#5A8942"/>
<path d="M16.0836 2.96522C16.0875 1.86065 15.1952 0.962101 14.0906 0.958246C12.9861 0.95439 12.0875 1.84669 12.0836 2.95125C12.0798 4.05581 12.9721 4.95437 14.0767 4.95822C15.1812 4.96208 16.0798 4.06978 16.0836 2.96522Z" fill="#5A8942"/>
<path d="M27.9579 39.0069C27.9617 37.9023 27.0694 37.0038 25.9649 36.9999C24.8603 36.9961 23.9618 37.8884 23.9579 38.9929C23.954 40.0975 24.8463 40.996 25.9509 40.9999C27.0555 41.0037 27.954 40.1114 27.9579 39.0069Z" fill="#5A8942"/>
<path d="M27.9998 27.007C28.0036 25.9024 27.1113 25.0038 26.0068 25C24.9022 24.9961 24.0037 25.8884 23.9998 26.993C23.9959 28.0976 24.8882 28.9961 25.9928 29C27.0974 29.0038 27.9959 28.1115 27.9998 27.007Z" fill="#5A8942"/>
<path d="M28.0417 15.007C28.0455 13.9025 27.1532 13.0039 26.0487 13.0001C24.9441 12.9962 24.0455 13.8885 24.0417 14.9931C24.0378 16.0976 24.9301 16.9962 26.0347 17C27.1393 17.0039 28.0378 16.1116 28.0417 15.007Z" fill="#5A8942"/>
<path d="M28.0836 3.00711C28.0874 1.90254 27.1951 1.00399 26.0905 1.00014C24.986 0.99628 24.0874 1.88858 24.0836 2.99314C24.0797 4.0977 24.972 4.99626 26.0766 5.00011C27.1811 5.00397 28.0797 4.11167 28.0836 3.00711Z" fill="#5A8942"/>
<path d="M39.9159 51.0487C39.9198 49.9441 39.0275 49.0456 37.9229 49.0417C36.8183 49.0379 35.9198 49.9302 35.9159 51.0347C35.9121 52.1393 36.8044 53.0379 37.9089 53.0417C39.0135 53.0456 39.9121 52.1533 39.9159 51.0487Z" fill="#5A8942"/>
<path d="M39.9578 39.0488C39.9617 37.9442 39.0694 37.0457 37.9648 37.0418C36.8602 37.038 35.9617 37.9303 35.9578 39.0348C35.954 40.1394 36.8463 41.0379 37.9508 41.0418C39.0554 41.0456 39.954 40.1533 39.9578 39.0488Z" fill="#5A8942"/>
<path d="M39.9997 27.0488C40.0036 25.9443 39.1113 25.0457 38.0067 25.0419C36.9021 25.038 36.0036 25.9303 35.9997 27.0349C35.9959 28.1394 36.8882 29.038 37.9927 29.0419C39.0973 29.0457 39.9958 28.1534 39.9997 27.0488Z" fill="#5A8942"/>
<path d="M40.0416 15.0489C40.0454 13.9444 39.1531 13.0458 38.0486 13.042C36.944 13.0381 36.0455 13.9304 36.0416 15.035C36.0378 16.1395 36.9301 17.0381 38.0346 17.0419C39.1392 17.0458 40.0377 16.1535 40.0416 15.0489Z" fill="#5A8942"/>
<path d="M40.0835 3.049C40.0873 1.94443 39.195 1.04588 38.0905 1.04203C36.9859 1.03817 36.0874 1.93047 36.0835 3.03503C36.0796 4.13959 36.9719 5.03815 38.0765 5.042C39.1811 5.04586 40.0796 4.15356 40.0835 3.049Z" fill="#5A8942"/>
<path d="M51.9158 51.0906C51.9197 49.986 51.0274 49.0875 49.9228 49.0836C48.8183 49.0798 47.9197 49.9721 47.9159 51.0766C47.912 52.1812 48.8043 53.0797 49.9089 53.0836C51.0134 53.0875 51.912 52.1952 51.9158 51.0906Z" fill="#5A8942"/>
<path d="M51.9577 39.0907C51.9616 37.9861 51.0693 37.0876 49.9647 37.0837C48.8602 37.0798 47.9616 37.9721 47.9578 39.0767C47.9539 40.1813 48.8462 41.0798 49.9508 41.0837C51.0553 41.0875 51.9539 40.1952 51.9577 39.0907Z" fill="#5A8942"/>
<path d="M51.9996 27.0907C52.0035 25.9862 51.1112 25.0876 50.0066 25.0838C48.9021 25.0799 48.0035 25.9722 47.9996 27.0768C47.9958 28.1813 48.8881 29.0799 49.9927 29.0837C51.0972 29.0876 51.9958 28.1953 51.9996 27.0907Z" fill="#5A8942"/>
<path d="M52.0415 15.0908C52.0454 13.9862 51.1531 13.0877 50.0485 13.0838C48.9439 13.08 48.0454 13.9723 48.0415 15.0768C48.0377 16.1814 48.93 17.08 50.0345 17.0838C51.1391 17.0877 52.0377 16.1954 52.0415 15.0908Z" fill="#5A8942"/>
<path d="M52.0834 3.09089C52.0873 1.98632 51.195 1.08777 50.0904 1.08392C48.9858 1.08006 48.0873 1.97236 48.0834 3.07692C48.0796 4.18148 48.9719 5.08004 50.0764 5.08389C51.181 5.08775 52.0795 4.19545 52.0834 3.09089Z" fill="#5A8942"/>
</svg>
